<svg width="203" height="53" class="mercury" viewBox="0 0 203 53" xmlns="http://www.w3.org/2000/svg"><path d="M63.995 19.706v4.902c-.101.201-.203.454-.356.656-.508 1.112-.813 2.021-.966 2.729.458-.102.915-.203 1.322-.354v.556c-.508.15-1.016.253-1.423.353-.05.304-.101.657-.153.96-.05.354-.05.658-.05 1.01 0 .557.05 1.163.203 1.72.152.605.356 1.11.66 1.515.204.303.458.555.763.758v2.122c-.356 0-.712.05-1.067.05-2.288 0-4.016-.555-5.236-1.617-1.168-1.01-1.78-2.577-1.78-4.548 0-1.768.509-3.385 1.526-4.95.966-1.568 2.237-2.881 3.71-4.044a19.403 19.403 0 0 1 2.847-1.818zM25.365 36.38c1.93-.86 3.863-2.072 5.794-3.688 1.932-1.617 3.812-3.436 5.642-5.407 1.83-1.97 3.508-3.992 5.133-6.063a243.23 243.23 0 0 0 4.32-5.66c1.273-1.718 2.542-3.335 3.916-4.85 1.321-1.466 2.693-2.83 4.167-4.043a29.664 29.664 0 0 1 4.473-3.132 18.657 18.657 0 0 1 4.93-1.972l.103.101a23.304 23.304 0 0 0-5.745 3.589 32.207 32.207 0 0 0-4.625 4.85c-1.372 1.77-2.593 3.638-3.71 5.558-1.068 1.92-2.084 3.841-2.948 5.71a114.316 114.316 0 0 0-2.44 5.357 67.916 67.916 0 0 1-2.085 4.546c-.71 1.264-1.372 2.325-2.033 3.084-.66.757-1.372 1.11-2.083 1.11-.204 0-.51-.05-.813-.1a7.998 7.998 0 0 1-1.068-.253c-.357-.101-.713-.152-1.067-.252-.407-.05-.712-.102-1.018-.102-.864 0-1.27.303-1.27.91 0 .505.509.809 1.525.809.61 0 1.067-.052 1.473-.052.407-.05.763-.1 1.069-.151l.914-.151c.255-.05.559-.05.864-.05.66 0 1.526-.052 2.542-.052a44.85 44.85 0 0 0 3.406-.302 26.158 26.158 0 0 0 3.812-.91 16.117 16.117 0 0 0 3.812-1.718 18.56 18.56 0 0 0 3.609-2.78v-.808a1.174 1.174 0 0 1-.356.354c-1.677 1.668-3.406 2.83-5.134 3.639a20.467 20.467 0 0 1-5.337 1.616 36.48 36.48 0 0 1-5.694.454h-.1v-.1c2.591-1.01 4.726-2.223 6.506-3.587 1.78-1.366 3.354-2.931 4.675-4.751 1.323-1.819 2.491-3.84 3.56-6.114a167.858 167.858 0 0 0 3.201-7.73 38.985 38.985 0 0 1 2.186-4.8c.762-1.416 1.525-2.629 2.288-3.639.762-1.01 1.524-1.768 2.236-2.325V1.01c-.559.151-1.119.304-1.678.505a23.48 23.48 0 0 0-5.793 2.78c-1.831 1.161-3.509 2.577-5.134 4.194a52.756 52.756 0 0 0-4.575 5.355c-1.983 2.577-3.66 4.801-5.134 6.67a142.727 142.727 0 0 1-4.067 4.9c-1.22 1.366-2.338 2.63-3.456 3.69a55.533 55.533 0 0 1-3.507 3.335l-.102-.1c1.78-1.922 3.253-3.891 4.371-5.913 1.17-2.021 2.135-4.043 3-6.063.863-2.072 1.677-4.043 2.389-5.963a42.035 42.035 0 0 1 2.439-5.508c.914-1.718 1.983-3.334 3.253-4.75 1.22-1.414 2.795-2.627 4.727-3.587L50.322 0c-2.491.707-4.778 1.616-6.862 2.778a35.164 35.164 0 0 0-5.795 3.89 41.89 41.89 0 0 0-5.083 4.852c-1.575 1.769-3.05 3.688-4.524 5.71-1.83 2.526-3.557 4.901-5.184 7.124a68.55 68.55 0 0 1-4.88 5.812c-1.627 1.615-3.253 2.93-4.93 3.89a10.193 10.193 0 0 1-5.237 1.414c-1.016 0-1.83-.251-2.49-.758-.61-.454-1.017-1.262-1.118-2.374.712-.1 1.22-.354 1.627-.859.407-.505.61-1.112.61-1.82 0-.91-.306-1.666-.865-2.172-.61-.505-1.321-.809-2.185-.809-1.016 0-1.83.404-2.491 1.163-.61.758-.915 1.617-.915 2.627 0 .96.204 1.82.559 2.577.406.708.914 1.365 1.525 1.87.662.505 1.423.91 2.236 1.163a8.804 8.804 0 0 0 2.643.404c2.034 0 3.863-.404 5.49-1.112 1.627-.758 3.152-1.819 4.626-3.133a37.75 37.75 0 0 0 4.37-4.851 274.39 274.39 0 0 0 4.576-6.316c.864-1.213 1.932-2.678 3.203-4.446 1.27-1.819 2.795-3.639 4.523-5.508 1.728-1.87 3.71-3.639 5.896-5.306a29.161 29.161 0 0 1 7.421-4.042l.103.101c-2.746 1.364-5.083 2.93-6.965 4.7a35.736 35.736 0 0 0-4.879 5.658 40.236 40.236 0 0 0-3.304 6.165c-.915 2.072-1.779 4.194-2.491 6.266-.762 2.072-1.474 4.092-2.186 6.063a34.383 34.383 0 0 1-2.541 5.508l.56.15zm49.559-3.79l-1.983 3.488 1.983-.103V32.59zm0-1.718v.86c-1.475 1.212-3.102 2.374-4.83 3.233-1.83.96-3.863 1.517-6.1 1.668v-2.122c.153.1.306.201.509.252.508.303 1.119.404 1.881.404 1.575 0 3.253-.556 5.032-1.666a31.633 31.633 0 0 0 3.508-2.629zm0-12.43v5.508l-.05.05c-1.12.86-2.441 1.567-4.017 2.173a37.853 37.853 0 0 1-4.626 1.516c-.813.202-1.575.354-2.236.506v-.556a13.068 13.068 0 0 0 2.44-1.011 15.24 15.24 0 0 0 2.795-2.02 7.822 7.822 0 0 0 1.779-2.426c.407-.86.61-1.668.61-2.476 0-.91-.507-1.364-1.422-1.364-.712 0-1.475.354-2.34 1.11-.863.708-1.626 1.618-2.337 2.629a25.36 25.36 0 0 0-1.525 2.527v-4.902c.661-.354 1.372-.658 2.084-.96 1.779-.657 3.456-1.011 5.033-1.011 1.524 0 2.794.253 3.812.707zM63.994 2.525c.764-.505 1.373-.757 1.933-.757.405 0 .762.05 1.168.101.407.05.763.1.967.202.355.051.761.102 1.117.202.356.05.814.101 1.373.101.457 0 .864-.1 1.118-.252.306-.203.407-.354.407-.556 0-.405-.203-.657-.661-.86-.458-.15-1.322-.201-2.54-.201-1.678 0-3.305.151-4.881.505v1.515zm10.93 21.425c1.067-.859 1.625-1.819 1.625-2.981 0-1.112-.508-1.971-1.524-2.476-.05 0-.05-.05-.101-.05v5.507zm0 7.781c.407-.353.763-.656 1.117-1.01l.864-1.617c-.05.05-.05.1-.1.1-.61.608-1.272 1.163-1.881 1.668v.86zm25.618-4.194c-.407 1.062-.56 2.224-.56 3.386 0 .96.153 1.82.56 2.527v-5.913zm0-10.105v.252c-.356.304-.661.708-.967 1.062-.405.505-.761 1.06-1.117 1.617-.305.556-.61 1.111-.813 1.718a5.084 5.084 0 0 0-.306 1.718c0 .707.154 1.314.508 1.92.356.606.915.909 1.678.909.305 0 .661-.05 1.017-.151v.707c-.204.05-.457.05-.661.152-1.016.353-2.287.555-3.711.555a6.978 6.978 0 0 1-2.135-.354c-.71-.252-1.219-.606-1.676-.96a4.189 4.189 0 0 1-1.068-1.414c-.255-.505-.356-1.062-.356-1.668 0-.96.153-1.768.406-2.325v-.1c-1.016.556-2.084 1.415-3.253 2.627a44.223 44.223 0 0 0-3.406 3.992 57.67 57.67 0 0 0-3.05 4.396c-.914 1.466-1.574 2.678-2.032 3.689l-4.676.201V32.59l8.031-14.047 7.116-.201-7.574 11.116.102.1c1.83-2.576 3.507-4.699 5.083-6.265 1.575-1.566 2.947-2.628 4.167-3.082.458-.556.864-1.01 1.22-1.364.357-.304.814-.556 1.425-.759.558-.201 1.321-.353 2.337-.454.864-.05 2.135-.1 3.711-.202zm0 .252v-.252h.203c-.05.101-.152.151-.203.252zm0 9.5c.101-.051.203-.102.253-.253l.306-.708s-.05.05-.102.05c-.153.103-.305.153-.457.204v.707zm19.62 2.123c-.1.252-.204.555-.305.808-.305.86-.457 1.616-.457 2.274 0 1.061.253 2.021.762 2.778v-5.86zm0-10.259v4.194c-.254.304-.56.607-.914.809a4.86 4.86 0 0 1-1.73.758c-.66.203-1.372.253-2.083.253h-.406c.05-.354.101-.758.152-1.213v-1.617c0-1.162-.102-2.021-.306-2.627-.202-.607-.609-.91-1.22-.91-.71 0-1.473.405-2.287 1.212-.813.758-1.626 1.77-2.337 2.931-.763 1.162-1.374 2.426-1.882 3.79-.508 1.365-.762 2.628-.762 3.79 0 1.415.356 2.526 1.068 3.435.712.86 1.779 1.314 3.201 1.314 1.526 0 3.051-.505 4.677-1.515 1.475-.91 2.999-2.122 4.575-3.588l-.356 1.162c-.508.455-1.067.91-1.575 1.364-1.627 1.263-3.254 2.275-4.982 2.981-1.779.708-3.71 1.112-5.947 1.112-.915 0-1.779-.15-2.643-.354a7.919 7.919 0 0 1-2.288-1.06c-.66-.455-1.168-1.062-1.575-1.768v-5.964a7.359 7.359 0 0 1 .915-1.92c.965-1.617 2.236-2.98 3.762-4.143 1.574-1.163 3.252-2.122 5.083-2.778 1.83-.658 3.608-.961 5.285-.961 1.577 0 2.847.253 3.863.808.255.153.508.354.712.505zm0 4.194c.102-.15.203-.302.305-.454.305-.505.457-1.111.457-1.82 0-.757-.253-1.413-.762-1.92v4.194zm25.619 8.995l-2.186 3.84 2.186-.102v-3.738zm0-13.845v2.324c-.51.708-1.018 1.466-1.576 2.274-.66.96-1.373 1.97-2.085 3.082a43.818 43.818 0 0 0-1.93 3.133c-.56 1.011-1.068 1.92-1.425 2.78-.356.909-.508 1.616-.508 2.172 0 .455.102.758.255.96.203.152.508.253.814.253.558 0 1.218-.203 1.981-.658.712-.505 1.525-1.06 2.339-1.818a26.247 26.247 0 0 0 2.135-2.022v.809c-.915.909-1.78 1.718-2.746 2.425a14.358 14.358 0 0 1-2.999 1.82c-1.016.504-1.981.757-2.999.757-.71 0-1.372-.15-1.88-.354-.508-.251-.965-.555-1.27-.96a3.625 3.625 0 0 1-.763-1.363c-.152-.505-.254-1.012-.254-1.517 0-.404.05-.808.152-1.213.102-.404.203-.706.306-.96l-.103-.1a48.412 48.412 0 0 1-2.236 2.374c-.763.758-1.524 1.466-2.388 2.072a12.828 12.828 0 0 1-2.491 1.466c-.864.354-1.78.555-2.645.555-1.372 0-2.438-.404-3.1-1.213-.05-.1-.152-.201-.203-.303v-5.86c.254-.607.509-1.213.814-1.82a32.25 32.25 0 0 1 1.575-2.83c.56-.908 1.118-1.819 1.677-2.678.508-.809 1.018-1.566 1.424-2.273.458-.658.812-1.163 1.016-1.567l7.168-.202-1.728 2.678a130.911 130.911 0 0 0-3.813 5.76c-.965 1.516-1.728 2.729-2.236 3.638-.56.961-.916 1.668-1.068 2.173-.152.506-.255.96-.255 1.365 0 .455.154.757.407 1.06.204.254.56.354.967.354.66 0 1.473-.354 2.541-1.112 1.016-.706 2.186-1.818 3.406-3.182 1.27-1.415 2.541-3.184 3.964-5.204 1.372-2.022 2.744-4.347 4.118-6.924l5.642-.151zm0 2.324c.101-.151.152-.303.253-.405.56-.858.967-1.515 1.27-1.97l-1.523.051v2.324zm0 10.965l.152-.151c.254-.254.558-.455.712-.759l1.321-2.223c-.558.606-1.118 1.213-1.728 1.87l-.457.454v.809zm16.468 7.125v.758c-.508.1-.966.201-1.322.404-.609.354-1.066.758-1.372 1.263-.356.505-.61 1.111-.813 1.769-.152.707-.203 1.414-.203 2.172 0 1.971.407 3.537 1.322 4.649.609.758 1.422 1.263 2.388 1.516v.707c-.966 0-2.032-.151-3.1-.404a11.928 11.928 0 0 1-3.254-1.213 7.572 7.572 0 0 1-2.388-2.173c-.61-.91-.915-1.97-.915-3.283 0-1.012.203-1.921.71-2.68a5.683 5.683 0 0 1 1.832-1.969c.761-.557 1.626-.91 2.541-1.213.966-.253 1.88-.354 2.795-.354.56 0 1.17 0 1.779.05zm0-18.495v5.407c-.101-.15-.203-.354-.304-.555-.255-.505-.356-1.062-.356-1.668 0-.96.152-1.768.406-2.325v-.1c-1.017.556-2.084 1.415-3.253 2.627a44.014 44.014 0 0 0-3.406 3.992 57.3 57.3 0 0 0-3.05 4.396c-.914 1.466-1.575 2.678-2.033 3.689l-4.472.201v-3.738l7.827-13.694 7.117-.201c-4.931 7.225-13.42 16.068-2.39 4.95 1.475-1.464 2.796-2.474 3.914-2.98zm0 5.407c.204.304.457.607.763.86a6.577 6.577 0 0 0 1.677.959c.661.203 1.372.354 2.135.354 1.475 0 2.745-.202 3.762-.555.356-.152.864-.101 1.016-.405l.356-.758c-.051.05-.152.05-.254.1-.509.204-.966.355-1.474.355-.763 0-1.322-.303-1.678-.91-.356-.605-.508-1.212-.508-1.919 0-.557.101-1.163.305-1.718.203-.607.508-1.162.814-1.718.355-.557.71-1.112 1.117-1.617.407-.455.763-.91 1.17-1.314-1.678.05-3 .151-3.965.202-1.017.1-1.779.253-2.339.454-.609.203-1.066.455-1.422.759-.356.354-.763.808-1.22 1.364-.102 0-.152.05-.255.1v5.407zm0 13.846c.255-.05.56-.05.813-.05h.915c.305 0 .56.05.712.1v-.455a40.66 40.66 0 0 0-2.44-.353v.758zm0 12.48v-.707c.407.05.813.101 1.27.101a8.78 8.78 0 0 0 4.424-1.162c1.422-.759 2.744-1.769 4.015-2.982 1.27-1.263 2.49-2.627 3.66-4.244 1.168-1.567 2.236-3.183 3.252-4.8a135.545 135.545 0 0 0 2.949-4.699 36.953 36.953 0 0 1 2.541-3.993l-.101-.1c-.662.758-1.322 1.567-2.084 2.426-.712.858-1.577 1.617-2.44 2.323a14.646 14.646 0 0 1-2.949 1.768 8.801 8.801 0 0 1-3.456.708c-.61 0-1.168-.15-1.575-.354-.457-.251-.864-.555-1.119-.96-.305-.404-.558-.858-.661-1.363a5.205 5.205 0 0 1-.203-1.517c0-1.213.306-2.476.864-3.74.559-1.262 1.271-2.526 2.034-3.737.762-1.263 1.576-2.426 2.337-3.538.814-1.163 1.424-2.173 1.882-3.132l7.064-.405a33.52 33.52 0 0 1-1.117 2.022c-.56.859-1.17 1.768-1.83 2.778a111.339 111.339 0 0 1-2.033 3.184c-.661 1.111-1.321 2.173-1.882 3.183-.558 1.011-1.066 1.92-1.422 2.677-.356.809-.559 1.467-.559 1.87 0 .405.101.759.253 1.061.152.304.458.455.915.455.661 0 1.424-.302 2.288-.859a17.946 17.946 0 0 0 2.694-2.324c.965-.96 1.83-2.021 2.744-3.182.915-1.163 1.627-2.325 2.288-3.438l3.914-6.82 6.963-.202c-1.677 2.93-3.405 5.76-5.134 8.539a845.327 845.327 0 0 1-5.083 8.236l.051.102c1.068-.354 2.238-.961 3.61-1.769 1.321-.86 2.744-1.82 4.168-2.982 1.423-1.111 2.795-2.374 4.167-3.738 1.374-1.366 2.592-2.73 3.61-4.144l.406.252c-.61.859-1.474 1.87-2.541 3.083a54.068 54.068 0 0 1-3.812 3.738c-1.423 1.264-3 2.426-4.728 3.589a26.793 26.793 0 0 1-5.337 2.778c-1.322 2.375-2.745 4.548-4.371 6.519-1.627 1.97-3.406 3.637-5.389 5.053a24.707 24.707 0 0 1-6.556 3.233c-2.338.809-4.932 1.213-7.726 1.213h-.255z" fill="inherit" fill-rule="evenodd"/></svg>